<?xml version="1.0" standalone="no"?>
<!DOCTYPE svg PUBLIC "-//W3C//DTD SVG 20010904//EN"
 "http://www.w3.org/TR/2001/REC-SVG-20010904/DTD/svg10.dtd">
<svg version="1.0" xmlns="http://www.w3.org/2000/svg"
 width="1920.000000pt" height="1080.000000pt" viewBox="0 0 1920.000000 1080.000000"
 preserveAspectRatio="xMidYMid meet">

<g transform="translate(0.000000,1080.000000) scale(0.100000,-0.100000)"
fill="#000000" stroke="none">
<path d="M1027 7186 c-51 -19 -114 -64 -142 -101 -48 -65 -59 -97 -59 -180 -1
-94 18 -141 90 -226 57 -66 74 -104 74 -166 0 -28 7 -58 16 -71 14 -20 23 -22
123 -22 129 0 131 2 140 98 8 76 18 99 74 162 70 80 82 113 82 220 0 106 -9
131 -72 201 -55 61 -123 92 -213 96 -48 2 -89 -2 -113 -11z m287 -98 c61 -50
114 -185 70 -176 -10 2 -22 22 -31 50 -13 45 -63 110 -92 120 -15 4 -9 38 6
38 5 0 26 -14 47 -32z m-108 -132 c45 -45 46 -95 5 -169 -36 -63 -51 -141 -51
-259 0 -59 -4 -88 -11 -88 -9 0 -10 34 -6 123 5 110 11 149 31 198 6 12 -2 15
-44 15 -46 0 -50 -2 -44 -20 19 -57 24 -101 24 -205 0 -158 -17 -130 -22 34
-3 124 -5 133 -37 195 -37 73 -41 115 -15 158 21 37 47 50 98 51 30 1 45 -6
72 -33z"/>
<path d="M1016 6388 c15 -7 57 -7 130 0 l109 9 -130 1 c-96 0 -124 -2 -109
-10z"/>
<path d="M1010 6360 c0 -6 47 -10 121 -10 77 0 118 4 114 10 -4 6 -55 10 -121
10 -69 0 -114 -4 -114 -10z"/>
<path d="M1010 6331 c0 -5 4 -11 10 -13 22 -7 220 4 220 13 0 5 -50 9 -115 9
-63 0 -115 -4 -115 -9z"/>
<path d="M1030 6292 c0 -11 50 -57 78 -72 20 -10 29 -8 60 14 20 14 43 35 50
46 12 20 10 20 -88 20 -55 0 -100 -4 -100 -8z"/>
<path d="M9613 6050 c-333 -35 -513 -263 -513 -650 0 -342 135 -555 405 -636
84 -26 313 -26 405 0 199 54 340 211 385 424 20 98 20 319 -1 420 -64 315
-317 479 -681 442z m244 -256 c108 -54 160 -163 170 -355 16 -314 -104 -479
-341 -467 -178 9 -271 116 -298 341 -12 106 1 238 34 325 29 79 104 152 178
175 83 25 184 18 257 -19z"/>
<path d="M15005 6049 c-236 -23 -398 -151 -472 -373 -26 -77 -27 -91 -27 -276
0 -185 1 -199 27 -276 64 -191 199 -319 387 -365 32 -8 109 -14 185 -14 76 0
153 6 185 14 200 49 339 190 397 402 26 92 25 386 -1 478 -84 303 -321 446
-681 410z m250 -254 c97 -47 146 -136 168 -308 13 -103 -1 -244 -33 -329 -43
-117 -130 -178 -262 -186 -226 -13 -348 136 -348 428 0 228 87 382 237 420 69
17 175 6 238 -25z"/>
<path d="M8390 6040 c-108 -26 -201 -95 -248 -185 -24 -45 -27 -60 -27 -160 0
-97 3 -116 25 -160 43 -88 109 -143 275 -228 83 -42 167 -90 187 -107 48 -39
65 -92 48 -144 -38 -117 -229 -120 -507 -8 l-53 22 0 -128 0 -129 78 -26 c142
-49 299 -60 439 -31 135 28 224 88 278 186 26 46 30 65 33 154 4 94 2 106 -23
163 -45 100 -116 155 -345 269 -59 29 -121 67 -140 87 -30 31 -35 43 -35 85 0
40 5 54 30 80 59 61 159 63 329 6 l98 -33 15 36 c8 20 28 67 44 105 16 38 28
70 27 71 -17 12 -149 56 -205 69 -77 17 -261 20 -323 6z"/>
<path d="M17646 6039 c-102 -24 -197 -96 -244 -184 -25 -45 -27 -60 -27 -160
0 -102 2 -114 28 -164 48 -91 108 -139 286 -231 209 -108 249 -151 222 -240
-36 -119 -248 -125 -499 -14 -30 13 -56 24 -58 24 -2 0 -4 -57 -4 -126 l0
-125 43 -19 c171 -76 452 -78 597 -5 128 65 192 168 192 309 1 192 -74 279
-357 417 -60 29 -123 66 -141 81 -84 74 -59 183 49 218 54 17 143 5 261 -34
53 -18 99 -30 101 -27 4 8 85 202 85 206 0 6 -151 56 -210 70 -72 16 -261 19
-324 4z"/>
<path d="M1000 5400 l0 -640 135 0 135 0 0 640 0 640 -135 0 -135 0 0 -640z"/>
<path d="M1600 5400 l0 -640 121 0 122 0 -6 453 c-4 248 -9 466 -12 482 -6 29
-6 29 10 10 9 -11 135 -228 282 -482 l265 -463 174 0 174 0 0 640 0 640 -121
0 -120 0 3 -480 c2 -263 0 -476 -3 -472 -3 4 -129 220 -279 480 l-273 472
-169 0 -168 0 0 -640z"/>
<path d="M2890 6036 c0 -3 310 -920 407 -1204 l25 -73 150 3 151 3 213 629
c118 345 214 632 214 637 0 6 -59 8 -136 7 l-137 -3 -128 -405 c-71 -223 -140
-452 -153 -510 l-23 -105 -11 40 c-6 22 -22 85 -36 140 -14 55 -79 267 -144
470 l-117 370 -138 3 c-75 1 -137 1 -137 -2z"/>
<path d="M4210 5400 l0 -640 370 0 370 0 0 110 0 110 -232 2 -233 3 -3 163 -2
162 220 0 220 0 0 110 0 110 -217 2 -218 3 -3 138 -3 137 236 0 235 0 0 115 0
115 -370 0 -370 0 0 -640z"/>
<path d="M5220 5400 l0 -640 121 0 122 0 -7 443 c-3 243 -9 460 -12 482 -4 27
-3 37 4 30 6 -5 132 -221 281 -480 l270 -470 175 -3 176 -2 0 640 0 640 -125
0 -125 0 1 -297 c0 -164 4 -379 8 -478 5 -99 7 -181 6 -183 -1 -2 -128 213
-281 478 l-278 480 -168 0 -168 0 0 -640z"/>
<path d="M6540 5925 l0 -115 175 0 175 0 0 -525 0 -525 135 0 135 0 0 525 0
525 175 0 175 0 0 115 0 115 -485 0 -485 0 0 -115z"/>
<path d="M10580 5400 l0 -640 395 0 395 0 0 110 0 110 -260 0 -260 0 0 530 0
530 -135 0 -135 0 0 -640z"/>
<path d="M11560 5618 c0 -233 5 -454 10 -493 34 -232 200 -368 470 -382 289
-15 497 108 556 331 11 40 14 153 14 509 l0 457 -135 0 -135 0 0 -425 c0 -264
-4 -443 -11 -474 -13 -64 -56 -122 -105 -146 -23 -11 -70 -20 -115 -23 -136
-8 -222 40 -257 144 -14 42 -17 113 -20 487 l-3 437 -135 0 -134 0 0 -422z"/>
<path d="M12800 5925 l0 -115 173 -2 172 -3 3 -522 2 -523 135 0 135 0 0 525
0 525 170 0 170 0 0 115 0 115 -480 0 -480 0 0 -115z"/>
<path d="M13960 5400 l0 -640 135 0 135 0 0 640 0 640 -135 0 -135 0 0 -640z"/>
<path d="M15980 5400 l0 -640 121 0 122 0 -6 458 c-3 251 -9 468 -13 482 -6
22 -5 23 8 10 8 -8 136 -225 283 -482 l268 -468 174 0 173 0 0 640 0 640 -121
0 -121 0 4 -479 c2 -349 0 -474 -8 -462 -6 9 -131 224 -279 479 l-268 462
-168 0 -169 0 0 -640z"/>
</g>
</svg>
